<?xml version="1.0" encoding="UTF-8"?>
<svg width="1200px" height="462px" viewBox="0 0 1200 462" version="1.1" xmlns="http://www.w3.org/2000/svg" xmlns:xlink="http://www.w3.org/1999/xlink">
    <!-- Generator: Sketch 3.8.1 (29687) - http://www.bohemiancoding.com/sketch -->
    <title>sails</title>
    <desc>Created with Sketch.</desc>
    <defs>
        <path d="M544.309683,66.0077191 C543.201919,65.9983642 542.096803,66.1130371 541.016776,66.3494093 C540.603381,64.6648765 539.470108,63.0350141 537.70605,61.4837404 C545.129346,59.6112779 550.631779,53.2831748 550.720873,45.6634826 C550.765857,38.3941995 545.875347,31.9414749 538.650445,29.7373009 C538.707465,21.5059832 531.701128,14.7712687 522.969935,14.6790124 C515.81613,14.5679558 509.474702,19.0734083 507.503251,25.6677703 C507.371392,25.7668604 507.243097,25.8659506 507.114802,25.9718746 C504.693896,21.2948356 499.941785,18.133802 494.524873,17.5972398 C489.10796,17.0606775 483.782206,19.223467 480.415171,23.3271922 C477.644152,19.2555473 472.930656,16.7848933 467.860072,16.7462383 C466.702781,16.7353887 465.54792,16.8500132 464.417488,17.0879285 C461.816556,14.519275 458.251162,13.0561473 454.517384,13.0252317 C447.033505,12.9466429 440.846831,18.4922754 440.486892,25.4900913 C438.62927,23.9228037 436.44143,22.7574226 434.072138,22.073189 C431.084227,20.5068773 427.481561,20.4595417 424.450007,21.9467636 C422.878271,22.3553099 421.37486,22.9753797 419.984626,23.788474 C412.821484,22.9991695 405.262766,22.4524652 397.429639,22.1722792 C394.540709,16.8602685 388.78709,13.5520145 382.539114,13.610427 C376.291138,13.6688394 370.605895,17.0840355 367.82555,22.4490483 C366.088814,22.5447215 364.372274,22.6586183 362.675928,22.7907385 C363.917195,20.2126207 364.389624,17.3552979 364.040845,14.5355025 C364.402668,14.6027639 364.769964,14.6393521 365.13848,14.6448434 C368.063653,14.6321564 370.561616,12.6173141 371.075307,9.85623353 C371.588998,7.09515299 369.971693,4.37647501 367.231512,3.39484046 C364.49133,2.41320592 361.410943,3.44899672 359.910456,5.85657058 C354.518612,0.217614376 345.738835,-1.01797578 338.884318,2.89753317 C334.120591,-0.342837904 327.813295,-0.589233049 322.790414,2.26882314 C322.084996,2.14306648 321.369617,2.07561965 320.652163,2.06722591 C313.881033,1.99547096 308.318016,7.12082444 308.246741,13.5138487 C308.233201,14.7913889 308.444032,16.0620022 308.870398,17.2724412 C307.035708,18.3247928 305.416281,19.6887566 304.091406,21.2975522 L303.852635,21.1847944 C303.878837,20.9669794 303.893112,20.7479972 303.8954,20.5287492 C303.970361,17.9286581 302.399145,15.5429059 299.918435,14.4900839 C297.437726,13.4372618 294.539395,13.9261218 292.582364,15.7274554 C290.625332,17.528789 289.997637,20.2854307 290.993581,22.7048926 C291.989525,25.1243545 294.411634,26.7269097 297.124271,26.761179 C297.281076,26.761179 297.437881,26.761179 297.594686,26.7440945 C297.735255,27.0875976 297.920875,27.4125391 298.147068,27.7110778 C297.718927,28.3177483 297.480309,29.0289957 297.459264,29.7612192 L297.459264,29.9764841 C295.321012,29.873977 293.147124,29.7931103 290.937597,29.733884 C289.619786,23.5676959 284.411427,18.8554859 277.914659,17.9515147 C271.417892,17.0475435 265.027342,20.1458615 261.935782,25.6985224 C260.659046,24.0391778 258.683097,23.0052299 256.536857,22.8734464 C254.390617,22.7416628 252.293252,23.5255006 250.806184,25.0151419 C249.642405,23.9888365 247.933263,23.7703413 246.529682,24.4684375 C244.322535,21.5424414 240.66124,19.9597986 236.912888,20.3114518 C233.164536,20.663105 229.892646,22.8961873 228.318908,26.1768887 C227.777849,26.0396904 227.221362,25.9662547 226.661764,25.958207 C222.977997,25.9274605 219.952634,28.7413666 219.872816,32.2726424 C219.865104,33.0557635 220.010145,33.833366 220.300466,34.5653839 C220.040312,34.7293952 219.787286,34.9070741 219.534259,35.0813362 C219.559206,34.7977333 219.577024,34.5141304 219.580588,34.2271106 C219.651863,27.9707624 214.334745,22.841992 207.702602,22.773654 C201.070459,22.7053159 195.635737,27.7179116 195.564462,33.9742598 C195.537996,36.1530529 196.178587,38.2914468 197.406922,40.124684 C195.936281,40.1679647 194.475142,40.2180793 193.023507,40.2750277 C188.893794,37.88768 183.792405,37.638889 179.431356,39.6121486 C177.148901,35.5410638 172.976246,32.759576 168.201104,32.1260731 C163.425962,31.4925703 158.622344,33.0832046 155.272681,36.4070943 C151.931849,32.2152555 146.758585,29.738362 141.256444,29.6962981 C132.639291,29.6040417 125.390619,35.3171024 123.683582,42.9777974 C123.315327,43.0347458 122.953013,43.1076397 122.596637,43.1964792 L122.101276,43.1964792 C120.353908,43.174851 118.627957,43.5668462 117.076385,44.3377245 C116.641608,44.2762203 116.203266,44.2283837 115.761361,44.2010485 C110.760465,41.3967763 104.550205,41.4823085 99.6353823,44.4231471 C96.7891413,39.0710232 91.0723031,35.6829387 84.8066097,35.6348743 C76.5244497,35.5460349 69.5822605,41.139504 68.1353772,48.5746834 C67.6353026,48.7540304 67.146278,48.9605174 66.670675,49.1931427 C62.7720211,46.6275036 57.8288659,46.0039566 53.370752,47.5154437 C48.8305054,44.8300688 43.2419687,44.3341567 38.2648137,46.1749822 C33.2876588,48.0158078 29.49423,51.9816867 28.0110918,56.8948406 C24.9249507,57.8555002 22.8168975,60.5906944 22.7652487,63.70131 C22.7528583,64.7447488 22.9791183,65.7781138 23.4281066,66.7286855 C21.1151594,65.4903318 18.5148376,64.8288541 15.8658245,64.8049695 C7.20234307,64.7127131 0.103348812,71.2629149 0.00712750428,79.4361452 C-0.0890938035,87.6093756 6.86022287,94.3065041 15.5237043,94.3987605 C24.1871858,94.4910168 31.28618,87.9408151 31.3824013,79.7675847 C31.4208903,76.5087772 30.3192446,73.3316039 28.253427,70.7435457 C28.947944,70.9402438 29.6675355,71.0437348 30.3916782,71.0510669 C30.6411409,71.0510669 30.8870398,71.0510669 31.1293749,71.0237317 C35.8767739,76.5813525 43.8355979,78.5440501 50.7905955,75.8723161 C53.8739242,78.1511743 58.2217455,77.9664136 61.0827117,75.4349526 C67.036116,82.671893 77.8976069,84.0888155 85.6512189,78.640007 C86.9489461,78.3704523 88.2011712,77.928843 89.3717762,77.3279165 C93.2861012,80.3485262 98.4922259,81.3460805 103.316738,79.9999341 C105.565099,81.3546503 108.301889,81.7461466 110.864765,81.0796752 C109.973664,82.720506 109.498709,84.5396986 109.478466,86.3895414 C109.403627,93.0046643 115.023664,98.4238714 122.037128,98.4990433 C123.746764,98.5178565 125.443077,98.2088379 127.026381,97.5901473 C127.722027,98.6973184 128.613172,99.6800787 129.659994,100.494514 C130.06573,105.026256 134.010843,108.512366 138.75469,108.531068 C139.19916,108.534921 139.643359,108.508659 140.083969,108.45248 C140.771108,109.072096 141.597899,109.531594 142.500193,109.795322 C142.453864,110.246353 142.421791,110.700801 142.414663,111.162083 C142.318442,119.536911 149.438818,126.404885 158.316125,126.497141 C162.142411,126.545799 165.862634,125.291442 168.814939,122.95723 C172.165233,124.192592 175.962906,123.328099 178.376486,120.780663 C179.815815,121.274482 181.331064,121.534325 182.859686,121.549466 C188.716848,121.636401 193.968322,118.102746 195.874509,112.791946 C196.53591,113.217231 197.31265,113.447659 198.108981,113.454825 C200.325177,113.494864 202.156965,111.807343 202.203733,109.682565 C202.214042,108.675687 201.804831,107.706499 201.066896,106.990046 C202.071874,107.085719 203.083979,107.181392 204.11034,107.273648 C206.400817,111.922542 210.899012,115.218907 216.178905,116.11773 C221.458798,117.016553 226.865598,115.406364 230.68524,111.797627 C232.543211,114.283412 235.127549,116.18579 238.112099,117.264671 C240.176056,120.927723 243.910518,123.452247 248.202308,124.085728 C252.494097,124.719208 256.847568,123.388486 259.965027,120.490227 C261.987998,124.612698 266.020394,127.497658 270.718032,128.183417 C275.415669,128.869176 280.160837,127.26556 283.371751,123.907129 C289.671235,126.836862 297.199159,125.76993 302.345168,121.218027 C304.599858,126.496208 309.938755,129.960895 315.887426,130.0063 C324.037727,130.091722 330.712635,123.931047 330.801729,116.243017 C330.828408,114.164745 330.36038,112.108012 329.433248,110.229269 C330.644924,110.457062 331.87917,110.66891 333.135986,110.864813 C332.90908,111.699666 332.789401,112.557972 332.779611,113.420656 C332.7119,119.355815 337.768864,124.221484 344.051759,124.289822 C350.334654,124.35816 355.502095,119.598415 355.569806,113.663256 L355.569806,113.130219 C356.282556,113.164388 357.00481,113.19514 357.736567,113.222475 C362.405857,117.456678 369.707283,117.470158 374.393545,113.253228 L375.744207,113.201974 C376.347184,118.158509 380.838544,121.828162 386.038293,121.612729 C391.238041,121.397296 395.382498,117.369848 395.537286,112.381917 C395.540711,112.068269 395.527627,111.754654 395.498085,111.442269 L395.662018,111.418351 C397.621181,113.715558 400.744896,114.785309 403.778636,114.197976 C406.812376,113.610643 409.258425,111.462585 410.134415,108.616491 C413.577618,107.762381 416.960538,106.698706 420.262599,105.431938 C420.641136,107.036283 422.204823,108.120499 423.912485,107.962667 C425.620148,107.804834 426.939031,106.454194 426.990963,104.810062 C426.999325,104.036104 426.711514,103.286052 426.181991,102.701833 C429.856219,100.67561 432.464886,98.4341221 433.787038,96.0491243 C435.074031,97.1834214 436.753835,97.8201078 438.501882,97.8361642 C441.007218,97.9103456 443.358769,96.6805896 444.650192,94.6208741 C445.941614,92.5611586 445.971259,89.9930955 444.727702,87.9064784 C443.484144,85.8198614 441.161558,84.5405029 438.655123,84.5614987 C436.356264,84.5317439 434.186281,85.5771261 432.83908,87.3633586 C432.410733,86.8165008 431.942722,86.2992672 431.438525,85.8155018 C431.99708,85.1440486 432.495406,84.428505 432.928174,83.676521 C433.644641,83.3488826 434.324129,82.9515776 434.955949,82.4908559 C442.777934,84.2282316 450.722881,85.4102673 458.726175,86.0273498 C457.963311,87.0173623 457.546667,88.2133957 457.535882,89.4442521 C457.497503,92.7731017 460.280933,95.5014983 463.752848,95.5382968 C467.224763,95.5750953 470.070419,92.9063608 470.1088,89.5775113 C470.12098,88.5533316 469.850497,87.5442731 469.324774,86.6526429 C471.016369,86.7095913 472.725782,86.7471772 474.453014,86.7654007 C477.14721,86.7950138 479.79983,86.7767904 482.410872,86.7107303 C484.059461,89.8458813 487.505296,91.7302689 491.159019,91.4947369 C494.812742,91.2592049 497.964474,88.9495146 499.160507,85.6309891 L500.229633,85.5148144 C499.046923,87.6305221 498.415989,89.9893032 498.390737,92.3896219 C498.294515,100.750782 505.400637,107.601671 514.263689,107.697344 C521.917981,107.821594 528.589384,102.724743 530.172278,95.5434228 C530.716802,95.6158199 531.265486,95.6557605 531.815168,95.6630143 C535.270842,95.7062413 538.603229,94.4331284 541.080924,92.1231035 C542.033996,92.3239467 543.006058,92.4304291 543.981818,92.4408755 C551.708032,92.5228811 558.037256,86.6799781 558.122786,79.3951424 C558.208316,72.1103066 552.035898,66.0863078 544.309683,66.0077191 L544.309683,66.0077191 Z" id="path-1"></path>
        <filter x="-50%" y="-50%" width="200%" height="200%" filterUnits="objectBoundingBox" id="filter-2">
            <feMorphology radius="1" operator="dilate" in="SourceAlpha" result="shadowSpreadOuter1"></feMorphology>
            <feOffset dx="0" dy="0" in="shadowSpreadOuter1" result="shadowOffsetOuter1"></feOffset>
            <feGaussianBlur stdDeviation="2" in="shadowOffsetOuter1" result="shadowBlurOuter1"></feGaussianBlur>
            <feComposite in="shadowBlurOuter1" in2="SourceAlpha" operator="out" result="shadowBlurOuter1"></feComposite>
            <feColorMatrix values="0 0 0 0 0.658402423   0 0 0 0 0.658402423   0 0 0 0 0.658402423  0 0 0 0.5 0" type="matrix" in="shadowBlurOuter1"></feColorMatrix>
        </filter>
        <path d="M44.752969,18.8218594 C47.0621396,18.8622634 49.3609038,18.5153526 51.5454805,17.7967887 C52.111637,17.867457 52.6816268,17.9062484 53.2525178,17.9129634 C58.7371324,17.9710508 63.2310238,15.1247711 63.2595338,11.5575251 C63.2880438,9.03926808 61.0999,6.83536608 57.8818318,5.74879114 C55.6402318,2.54715366 50.7151263,0.281747424 44.9703578,0.230493889 C39.8848835,0.175823452 35.4052471,1.85693939 32.8536006,4.42986684 L32.6362117,4.30002456 C30.8971006,1.98678168 27.269201,0.370586884 23.0532822,0.326167154 C17.1125074,0.264662912 12.258677,3.34670881 12.2123482,7.21122534 L12.2123482,7.48799442 C5.64078923,7.5973353 0.359308561,11.0654912 0.309416031,15.3810388 C0.259523501,19.8230118 5.74057429,23.4688466 12.5544684,23.5406015 C17.7326002,23.595272 22.1765992,21.565632 24.0511328,18.6407636 C25.5657274,17.6156929 26.5457593,16.2318475 26.7096919,14.7044921 C28.5545308,14.7364482 30.3827014,14.3648465 32.0553201,13.6179172 C32.4044602,14.070144 32.794412,14.4920489 33.220667,14.8787541 C33.1625542,14.9842172 33.130832,15.1011982 33.1280095,15.2204444 C33.1280095,15.8149854 33.8407599,16.3036024 34.7673355,16.3138531 C34.8864923,16.3154673 35.00561,16.3086147 35.1237107,16.2933517 C37.6539747,17.824124 41.028848,18.7808566 44.752969,18.8218594 L44.752969,18.8218594 Z" id="path-3"></path>
        <filter x="-50%" y="-50%" width="200%" height="200%" filterUnits="objectBoundingBox" id="filter-4">
            <feOffset dx="0" dy="0" in="SourceAlpha" result="shadowOffsetOuter1"></feOffset>
            <feGaussianBlur stdDeviation="2" in="shadowOffsetOuter1" result="shadowBlurOuter1"></feGaussianBlur>
            <feComposite in="shadowBlurOuter1" in2="SourceAlpha" operator="out" result="shadowBlurOuter1"></feComposite>
            <feColorMatrix values="0 0 0 0 0.492293793   0 0 0 0 0.492293793   0 0 0 0 0.492293793  0 0 0 0.5 0" type="matrix" in="shadowBlurOuter1"></feColorMatrix>
        </filter>
        <path d="M17.9565171,69.0763388 C27.4727929,69.0763388 35.1872587,61.6797593 35.1872587,52.5556161 C35.1872587,43.4314729 27.4727929,36.0348933 17.9565171,36.0348933 C8.44024127,36.0348933 0.72577549,43.4314729 0.72577549,52.5556161 C0.72577549,61.6797593 8.44024127,69.0763388 17.9565171,69.0763388 Z M57.2361932,60.0352153 C61.3084113,60.0352153 64.6095963,56.8700606 64.6095963,52.9656444 C64.6095963,49.0612282 61.3084113,45.8960734 57.2361932,45.8960734 C53.163975,45.8960734 49.86279,49.0612282 49.86279,52.9656444 C49.86279,56.8700606 53.163975,60.0352153 57.2361932,60.0352153 Z M83.8253479,72.4829904 C90.0173238,72.4829904 95.0369121,67.6702419 95.0369121,61.7334157 C95.0369121,55.7965895 90.0173238,50.983841 83.8253479,50.983841 C77.6333719,50.983841 72.6137837,55.7965895 72.6137837,61.7334157 C72.6137837,67.6702419 77.6333719,72.4829904 83.8253479,72.4829904 Z M111.013213,42.7388557 C106.64273,42.7392843 102.815994,45.5507688 101.678782,49.596817 C100.54157,53.6428651 102.376695,57.9172666 106.155142,60.0232235 C109.933589,62.1291803 114.715696,61.5429628 117.81998,58.5932825 C119.408835,57.8097172 120.407488,56.2402575 120.407264,54.5271687 L120.407264,54.2572334 C121.128479,51.4856987 120.477274,48.5501375 118.64207,46.299928 C116.806865,44.0497186 113.992473,42.7359892 111.013213,42.7388557 L111.013213,42.7388557 Z M320.130625,28.5416265 C320.150794,20.0073356 313.180439,12.9605054 304.290781,12.5279964 C295.401123,12.0954875 287.722583,18.4296043 286.841616,26.9220148 C286.392455,27.3297755 285.972186,27.7658306 285.583612,28.2272715 C286.90882,25.3142974 285.701143,21.9129958 282.797459,20.3803493 C279.893776,18.8477028 276.250409,19.6884865 274.392086,22.3200669 C272.533762,24.9516473 273.072516,28.5073168 275.635012,30.5231211 C278.197507,32.5389255 281.939789,32.3509622 284.268587,30.0894833 C283.400039,31.5792063 282.842045,33.2167041 282.625697,34.9107325 C280.334367,34.5888149 278.000042,34.6885453 275.747656,35.2045861 C275.414128,31.3443749 273.274887,27.8367647 269.929656,25.6650904 C266.584425,23.4934161 262.393276,22.8914314 258.531169,24.0278986 C260.886339,17.8453171 259.362358,10.9164197 254.603878,6.17216647 C249.845399,1.42791321 242.683766,-0.302835413 236.14839,1.71203639 C229.613013,3.7269082 224.845676,9.13538556 223.862988,15.6496541 C222.7556,16.8706094 221.947084,18.3136028 221.496657,19.8729454 C215.288863,18.2770141 208.662341,19.898639 204.01161,24.1518397 C199.360878,28.4050404 197.358425,34.674812 198.727844,40.6955481 C196.093472,39.8959547 193.248839,40.0170118 190.698711,41.0372383 C190.698711,40.6727688 190.678516,40.3117161 190.638127,39.9540803 C192.173233,37.560954 192.983902,34.8056304 192.979512,31.9961148 L192.979512,31.8013514 C195.465965,31.3246404 197.401994,29.4489855 197.873311,27.0601627 C198.344628,24.6713399 197.256943,22.247256 195.123913,20.932682 C192.990882,19.618108 190.23924,19.6760369 188.168447,21.0791119 C182.756028,16.0341386 174.385781,15.3439252 168.154415,19.428748 C162.466598,16.4771279 155.438999,17.4053169 150.795378,21.7214895 C150.256064,21.6303721 149.709622,21.564312 149.156052,21.5233092 C144.667272,15.2693357 136.247548,12.8479601 128.909838,15.7008276 C121.572127,18.553695 117.289293,25.9137657 118.61126,33.398981 C119.933227,40.8841963 126.504564,46.4820346 134.41281,46.8596399 L134.541105,47.030485 C130.372159,49.0041141 128.19825,53.4940962 129.316644,57.8210626 C127.819608,58.972613 127.493794,61.0324673 128.567416,62.5578083 C129.641038,64.0831493 131.755274,64.5641806 133.429214,63.6639655 C135.139737,65.2687289 137.665756,65.7765747 139.904552,64.9658053 C142.012708,64.7645713 143.99715,63.9174754 145.56379,62.5500554 C145.841763,62.5671399 146.119735,62.5808075 146.401272,62.5808075 C147.808661,62.5824063 149.205026,62.3428758 150.524533,61.8735087 C152.350461,68.9225767 159.183459,73.7031251 166.742029,73.2197043 C174.300599,72.7362835 180.410818,67.1279305 181.244076,59.9087899 C182.754301,59.1453013 184.025952,58.0109504 184.928996,56.6217298 C186.958561,60.2501814 190.905459,62.5139092 195.19973,62.5124694 L195.734293,62.5124694 C196.681498,63.270317 197.967262,63.5108133 199.142103,63.1498848 C200.316944,62.7889562 201.217501,61.8767893 201.528954,60.7322633 C203.416135,59.5598432 204.910813,57.8906762 205.833966,55.9246818 C204.696065,58.7338945 205.998186,61.9100999 208.826615,63.2245175 C211.655044,64.5389352 215.06213,63.5511759 216.657081,60.954362 C217.379529,68.1552391 223.468254,73.7766226 231.000532,74.1968771 C238.532809,74.6171316 245.260488,69.7108241 246.84919,62.6388948 C252.862931,63.9757269 259.084343,61.4058262 262.201834,56.2971241 C263.767116,62.6538917 268.890107,67.6482639 275.49309,69.2546858 C282.096072,70.8611076 289.082873,68.8128943 293.619873,63.9407346 C299.485879,66.4290699 306.366818,64.7090578 310.219043,59.7914793 C314.071268,54.8739008 313.876591,48.0585295 309.749415,43.3504812 C316.025563,40.8938478 320.128281,35.0412962 320.130625,28.5416265 L320.130625,28.5416265 Z" id="path-5"></path>
        <filter x="-50%" y="-50%" width="200%" height="200%" filterUnits="objectBoundingBox" id="filter-6">
            <feOffset dx="0" dy="0" in="SourceAlpha" result="shadowOffsetOuter1"></feOffset>
            <feGaussianBlur stdDeviation="2" in="shadowOffsetOuter1" result="shadowBlurOuter1"></feGaussianBlur>
            <feComposite in="shadowBlurOuter1" in2="SourceAlpha" operator="out" result="shadowBlurOuter1"></feComposite>
            <feColorMatrix values="0 0 0 0 0.492293793   0 0 0 0 0.492293793   0 0 0 0 0.492293793  0 0 0 0.5 0" type="matrix" in="shadowBlurOuter1"></feColorMatrix>
        </filter>
    </defs>
    <g id="Page-1" stroke="none" stroke-width="1" fill="none" fill-rule="evenodd">
        <g id="Desktop-HD-Copy">
            <g id="back_clouds" transform="translate(218.000000, 51.000000)">
                <g id="big-one" transform="translate(0.000000, 107.058625)">
                    <g id="Combined-Shape">
                        <use fill="black" fill-opacity="1" filter="url(#filter-2)" xlink:href="#path-1"></use>
                        <use fill-opacity="0.840000033" fill="#FFFFFF" fill-rule="evenodd" xlink:href="#path-1"></use>
                    </g>
                </g>
                <g id="little_one" transform="translate(258.548531, 11.078864)">
                    <g id="Shape">
                        <use fill="black" fill-opacity="1" filter="url(#filter-4)" xlink:href="#path-3"></use>
                        <use fill-opacity="0.75" fill="#FFFFFF" fill-rule="evenodd" xlink:href="#path-3"></use>
                    </g>
                </g>
                <g id="middle-one" opacity="0.7" transform="translate(441.835220, 0.000000)">
                    <g id="Combined-Shape">
                        <use fill="black" fill-opacity="1" filter="url(#filter-6)" xlink:href="#path-5"></use>
                        <use fill-opacity="0.75" fill="#FDFEFF" fill-rule="evenodd" xlink:href="#path-5"></use>
                    </g>
                </g>
            </g>
        </g>
    </g>
</svg>