<?xml version="1.0" encoding="utf-8"?>
<!-- Generator: Adobe Illustrator 19.2.0, SVG Export Plug-In . SVG Version: 6.00 Build 0)  -->
<svg version="1.1" id="moon_stars_clouds_hill" xmlns="http://www.w3.org/2000/svg" xmlns:xlink="http://www.w3.org/1999/xlink"
	 x="0px" y="0px" viewBox="0 0 1661.2 600" style="enable-background:new 0 0 1661.2 600;" xml:space="preserve">
<style type="text/css">
	.st0{fill:#E0196A;}
	.st1{fill:#9E005D;}
	.st2{fill:#C1527F;}
	.st3{fill:#D1427C;}
	.st4{opacity:0.4;fill:#841849;enable-background:new    ;}
	.st5{fill:#EAB7B9;}
	.st6{fill:#570D16;}
	.st7{fill:#D4145A;}
	.st8{fill:#F77A76;}
	.st9{fill:#FF9999;}
</style>
<g id="windmill">
	<g id="hill">
		<path class="st0" d="M1661.2,601c-10.8-6.4-22.3-11.6-34.3-15.4v-0.1L890.5,350.6c-36.2-11.4-75.1-11.5-111.4-0.3L41.9,581.4v0.2
			c-16,5-29.9,12.5-41.9,19.5H1661.2z"/>
		<polyline class="st1" points="761.3,390.3 501.4,601 960.9,601 1128.7,601 894.5,390 760.9,390 		"/>
	</g>
	<g id="house">
		<path class="st2" d="M889.4,220.8c-3.3-31.4-29.4-55.9-61.2-55.9s-58,24.5-61.2,56l39.7-6.2h37.9L889.4,220.8z"/>
		<path class="st3" d="M880,218.3l-39.8-5.4h-33.6l-35.2,5.4l-39.7,157c0,8.3,12.2,15.1,27.3,15.1h133.4c15.1,0,27.3-6.8,27.3-15.1
			L880,218.3z"/>
		<polygon class="st4" points="808.7,214 843.3,214 894.5,390.3 761.2,390.3 		"/>
		<path class="st5" d="M837.3,285c0,2.6-2.1,4.8-4.8,4.8h-12.5c-2.7,0-4.8-2.1-4.8-4.8v0v-21.3c0-2.7,2.1-4.8,4.8-4.8h0h12.5
			c2.6,0,4.8,2.2,4.8,4.8L837.3,285L837.3,285z"/>
		<path class="st5" d="M837.3,349.1c0,2.6-2.1,4.8-4.8,4.8h-12.5c-2.7,0-4.8-2.1-4.8-4.8v0v-21.3c0-2.7,2.1-4.8,4.8-4.8h0h12.5
			c2.6,0,4.8,2.2,4.8,4.8L837.3,349.1L837.3,349.1z"/>
	</g>
	<g id="sails">
		<circle id="bottom_part_rotor" class="st6" cx="825.9" cy="188.8" r="10.5"/>
		<g id="sails-2">
			<path class="st1" d="M954.4,309.7c-0.1-0.7-0.4-1.3-0.9-1.8l-0.4-0.4L862.2,218l-33.8-33.3c-1.3-1.3-3.4-1.3-4.7,0l-1.9,1.9
				c-1.3,1.2-1.3,3.3-0.1,4.6c0,0,0,0,0.1,0.1l30.1,29.7l-15.8,15.5c-2,2-2,5.2-0.1,7.2c0,0,0,0,0.1,0.1l90.8,89.4
				c2.1,2,5.3,2,7.4,0l18.7-18.4C954.4,313.4,954.9,311.5,954.4,309.7z M929.4,313.8l-5.2-5.1l6.2-6.2l5.2,5.1L929.4,313.8z
				 M922.8,307.3l-5.2-5.1l6.2-6.2l5.2,5.1L922.8,307.3z M916.2,300.8l-5.9-5.8l6.2-6.2l5.9,5.8L916.2,300.8z M908.9,293.6l-5.4-5.3
				l6.3-6.2l5.4,5.3L908.9,293.6z M902.1,286.9l-5.2-5.1l6.2-6.2l5.2,5.1L902.1,286.9z M895.5,280.4l-5.7-5.6l6.2-6.2l5.7,5.6
				L895.5,280.4z M888.4,273.5l-5.2-5.1l6.2-6.2l5.2,5.1L888.4,273.5z M881.8,267l-5.7-5.6l6.3-6.2l5.7,5.6L881.8,267z M874.7,260
				l-5.2-5.1l6.2-6.2l5.2,5.1L874.7,260z M868.2,253.5l-5.7-5.6l6.2-6.2l5.7,5.6L868.2,253.5z M861.1,246.6l-5.2-5.1l6.2-6.2
				l5.2,5.1L861.1,246.6z M854.5,240.1l-6.3-6.2l3.4-3.4c1.6-1.5,4.3-1.3,6.1,0.5l3,2.9L854.5,240.1z M937,309l2.8,2.8
				c1.8,1.8,2.1,4.5,0.5,6l-3.4,3.4l-6.2-6.1L937,309z M843.1,238.8l3.6-3.6l6.3,6.2l-6.4,6.3l-3-2.9
				C841.8,243.1,841.6,240.4,843.1,238.8L843.1,238.8z M854.5,242.8l5.2,5.1l-6.4,6.3l-5.2-5.1L854.5,242.8z M861.1,249.3l5.7,5.6
				l-6.4,6.3l-5.7-5.6L861.1,249.3z M868.2,256.3l5.2,5.1l-6.4,6.3l-5.2-5.1L868.2,256.3z M874.7,262.8l5.7,5.6l-6.4,6.3l-5.7-5.6
				L874.7,262.8z M881.8,269.7l5.2,5.1l-6.4,6.3l-5.2-5.1L881.8,269.7z M888.4,276.2l5.7,5.6l-6.4,6.3l-5.7-5.6L888.4,276.2z
				 M895.5,283.1l5.2,5.1l-6.4,6.3l-5.2-5.1L895.5,283.1z M902.1,289.6l5.4,5.3l-6.4,6.3l-5.4-5.3L902.1,289.6z M908.9,296.3
				l5.9,5.8l-6.4,6.3l-5.9-5.8L908.9,296.3z M916.2,303.5l5.2,5.1l-6.4,6.4l-5.2-5.1L916.2,303.5z M922.8,310l5.2,5.1l-6.4,6.3
				l-5.2-5.1L922.8,310z M931.9,326.1c-1.6,1.5-4.3,1.3-6.1-0.5l-2.8-2.8l6.4-6.3l6.2,6.1L931.9,326.1z"/>
			<path class="st1" d="M697.5,67.9c0.1,0.7,0.4,1.3,0.9,1.8l0.4,0.4l90.8,89.4l33.8,33.3c1.3,1.3,3.4,1.3,4.7,0l1.9-1.9
				c1.3-1.2,1.3-3.3,0.1-4.6c0,0,0,0-0.1-0.1l-30.2-29.7l15.8-15.5c2-2,2-5.2,0.1-7.2c0,0-0.1-0.1-0.1-0.1l-90.8-89.4
				c-2.1-2-5.3-2-7.4,0l-18.7,18.4C697.5,64.2,697,66.1,697.5,67.9z M722.5,63.8l5.2,5.1l-6.2,6.2l-5.2-5.1L722.5,63.8z M729.1,70.3
				l5.2,5.1l-6.2,6.2l-5.2-5.1L729.1,70.3z M735.7,76.8l5.9,5.8l-6.2,6.2l-5.9-5.8L735.7,76.8z M743,83.9l5.4,5.3l-6.3,6.2l-5.4-5.3
				L743,83.9z M749.8,90.7l5.2,5.1l-6.2,6.2l-5.2-5.1L749.8,90.7z M756.4,97.1l5.7,5.6l-6.2,6.2l-5.7-5.6L756.4,97.1z M763.5,104.1
				l5.2,5.1l-6.2,6.2l-5.2-5.1L763.5,104.1z M770.1,110.6l5.7,5.6l-6.2,6.2l-5.7-5.6L770.1,110.6z M777.1,117.6l5.2,5.1l-6.2,6.2
				l-5.2-5.1L777.1,117.6z M783.7,124l5.6,5.6l-6.2,6.2l-5.7-5.6L783.7,124z M790.8,131l5.2,5.1l-6.3,6.2l-5.2-5.1L790.8,131z
				 M797.3,137.5l6.3,6.2l-3.4,3.4c-1.6,1.5-4.3,1.3-6.1-0.5l-3-2.9L797.3,137.5z M714.8,68.6l-2.8-2.8c-1.8-1.8-2.1-4.5-0.5-6
				l3.4-3.4l6.2,6.1L714.8,68.6z M808.7,138.8l-3.6,3.6l-6.3-6.2l6.4-6.3l3,2.9C810.1,134.5,810.3,137.2,808.7,138.8L808.7,138.8z
				 M797.4,134.8l-5.2-5.1l6.4-6.3l5.2,5.1L797.4,134.8z M790.8,128.3l-5.7-5.6l6.4-6.3l5.6,5.6L790.8,128.3z M783.7,121.4l-5.2-5.1
				l6.4-6.3l5.2,5.1L783.7,121.4z M777.1,114.9l-5.7-5.6l6.4-6.3l5.7,5.6L777.1,114.9z M770.1,107.9l-5.2-5.1l6.4-6.3l5.2,5.1
				L770.1,107.9z M763.5,101.4l-5.7-5.6l6.4-6.3l5.7,5.4L763.5,101.4z M756.4,94.5l-5.2-5.1l6.4-6.3l5.2,5.1L756.4,94.5z M749.8,88
				l-5.4-5.3l6.4-6.3l5.4,5.3L749.8,88z M743,81.3l-5.9-5.8l6.4-6.3l5.9,5.8L743,81.3z M735.7,74.1l-5.2-5.1l6.4-6.3l5.2,5.1
				L735.7,74.1z M729.1,67.6l-5.2-5.1l6.4-6.3l5.2,5.1L729.1,67.6z M720,51.5c1.6-1.5,4.3-1.3,6.1,0.5l2.8,2.8l-6.4,6.3l-6.2-6.1
				L720,51.5z"/>
			<path class="st1" d="M703.1,315.2c0.7-0.1,1.4-0.4,1.9-0.9l0.4-0.4l90.8-89.4l33.8-33.3c1.3-1.3,1.3-3.3,0-4.6c0,0,0,0,0,0
				l-1.9-1.9c-1.3-1.3-3.4-1.3-4.7,0l-30.1,29.7l-15.8-15.5c-2.1-2-5.3-2-7.4,0l-90.8,89.4c-2,2-2,5.2-0.1,7.2c0,0,0,0,0.1,0.1
				l18.7,18.4C699.3,315.2,701.3,315.7,703.1,315.2z M698.9,290.6l5.2-5.1l6.2,6.2l-5.2,5.1L698.9,290.6z M705.5,284.1l5.2-5.1
				l6.2,6.2l-5.2,5.1L705.5,284.1z M712.1,277.6l5.9-5.8l6.2,6.2l-5.9,5.8L712.1,277.6z M719.4,270.4l5.4-5.3l6.3,6.2l-5.4,5.3
				L719.4,270.4z M726.2,263.7l5.2-5.1l6.2,6.2l-5.2,5.1L726.2,263.7z M732.8,257.2l5.7-5.6l6.2,6.2l-5.7,5.6L732.8,257.2z
				 M739.8,250.2l5.2-5.1l6.2,6.2l-5.2,5.1L739.8,250.2z M746.4,243.8l5.6-5.6l6.3,6.2l-5.7,5.6L746.4,243.8z M753.5,236.8l5.2-5.1
				l6.2,6.2l-5.2,5.1L753.5,236.8z M760.1,230.3l5.7-5.6l6.3,6.2l-5.7,5.6L760.1,230.3z M767.2,223.3l5.2-5.1l6.3,6.2l-5.2,5.1
				L767.2,223.3z M773.7,216.8l6.3-6.2l3.4,3.4c1.6,1.5,1.3,4.2-0.5,6l-3,2.9L773.7,216.8z M703.7,298.1l-2.8,2.8
				c-1.8,1.8-4.6,2.1-6.1,0.5l-3.4-3.4l6.2-6.1L703.7,298.1z M775,205.7l3.6,3.6l-6.3,6.2l-6.4-6.3l3-2.9
				C770.8,204.4,773.5,204.2,775,205.7L775,205.7z M770.9,216.8l-5.2,5.1l-6.4-6.3l5.2-5.1L770.9,216.8z M764.3,223.3l-5.7,5.6
				l-6.4-6.3l5.7-5.6L764.3,223.3z M757.3,230.3l-5.2,5.1l-6.4-6.3l5.2-5.1L757.3,230.3z M750.7,236.8l-5.7,5.6l-6.4-6.3l5.7-5.6
				L750.7,236.8z M743.6,243.8l-5.2,5.1l-6.4-6.3l5.2-5.1L743.6,243.8z M737,250.2l-5.7,5.6l-6.4-6.3l5.7-5.6L737,250.2z M730,257.2
				l-5.2,5.1l-6.4-6.3l5.2-5.1L730,257.2z M723.4,263.7L718,269l-6.4-6.3l5.4-5.3L723.4,263.7z M716.6,270.4l-5.9,5.8l-6.4-6.3
				l5.9-5.8L716.6,270.4z M709.3,277.6l-5.2,5.1l-6.4-6.3l5.2-5.1L709.3,277.6z M702.7,284l-5.2,5.1l-6.4-6.3l5.2-5.1L702.7,284z
				 M686.3,293c-1.6-1.5-1.3-4.2,0.5-6l2.8-2.8l6.4,6.3l-6.2,6.1L686.3,293z"/>
			<path class="st1" d="M948.8,62.4c-0.7,0.1-1.4,0.4-1.9,0.9l-0.4,0.4l-90.8,89.4l-33.8,33.3c-1.3,1.2-1.3,3.3-0.1,4.6
				c0,0,0,0,0.1,0.1l1.9,1.9c1.3,1.3,3.4,1.3,4.7,0l30.1-29.7l15.8,15.5c2.1,2,5.3,2,7.4,0l90.8-89.4c2-2,2.1-5.2,0.1-7.2
				c0,0-0.1-0.1-0.1-0.1l-18.6-18.4C952.6,62.4,950.6,61.9,948.8,62.4z M952.9,87l-5.2,5.1l-6.2-6.2l5.2-5.1L952.9,87z M946.4,93.5
				l-5.2,5.1l-6.2-6.2l5.2-5.1L946.4,93.5z M939.8,100l-5.9,5.8l-6.2-6.2l5.9-5.8L939.8,100z M932.5,107.2l-5.4,5.3l-6.2-6.2
				l5.4-5.3L932.5,107.2z M925.6,113.9l-5.2,5.1l-6.3-6.2l5.2-5.1L925.6,113.9z M919.1,120.4l-5.7,5.6l-6.2-6.2l5.7-5.6L919.1,120.4
				z M912,127.3l-5.2,5.1l-6.2-6.2l5.2-5.1L912,127.3z M905.4,133.8l-5.7,5.6l-6.2-6.2l5.7-5.6L905.4,133.8z M898.3,140.8l-5.2,5.1
				l-6.2-6.2l5.2-5.1L898.3,140.8z M891.7,147.3l-5.6,5.6l-6.3-6.2l5.7-5.6L891.7,147.3z M884.7,154.2l-5.2,5.1l-6.2-6.2l5.2-5.1
				L884.7,154.2z M878.1,160.7l-6.3,6.2l-3.4-3.4c-1.6-1.5-1.3-4.2,0.5-6l3-2.9L878.1,160.7z M948.1,79.5l2.8-2.8
				c1.8-1.8,4.6-2.1,6.1-0.5l3.4,3.4l-6.2,6.1L948.1,79.5z M876.8,171.9l-3.6-3.6l6.3-6.2l6.4,6.3l-3,2.9
				C881.1,173.2,878.4,173.4,876.8,171.9L876.8,171.9z M880.9,160.7l5.2-5.1l6.4,6.3l-5.2,5.1L880.9,160.7z M887.5,154.2l5.7-5.6
				l6.4,6.3l-5.7,5.6L887.5,154.2z M894.6,147.2l5.2-5.1l6.4,6.3l-5.2,5.1L894.6,147.2z M901.1,140.8l5.7-5.6l6.4,6.3l-5.7,5.6
				L901.1,140.8z M908.2,133.8l5.2-5.1l6.4,6.3l-5.2,5.1L908.2,133.8z M914.8,127.3l5.7-5.6l6.4,6.3l-5.7,5.6L914.8,127.3z
				 M921.9,120.4l5.2-5.1l6.4,6.3l-5.2,5.1L921.9,120.4z M928.4,113.9l5.4-5.3l6.4,6.3l-5.4,5.3L928.4,113.9z M935.3,107.2l5.9-5.8
				l6.4,6.3l-5.9,5.8L935.3,107.2z M942.6,100l5.2-5.1l6.4,6.3l-5.2,5.1L942.6,100z M949.1,93.5l5.2-5.1l6.4,6.3l-5.2,5.1
				L949.1,93.5z M965.5,84.5c1.6,1.5,1.3,4.2-0.5,6l-2.8,2.8l-6.4-6.3l6.2-6L965.5,84.5z"/>
		</g>
		<g id="rotor">
			<circle class="st7" cx="825.9" cy="188.8" r="8.7"/>
			<circle class="st8" cx="826.5" cy="188.8" r="5.5"/>
			<path class="st9" d="M823.3,191.3c-1.6-1.6-1.6-4.2,0-5.8s4.2-1.6,5.8,0C830.6,187.2,824.9,192.9,823.3,191.3z"/>
		</g>
	</g>
</g>
</svg>
