<?xml version="1.0" encoding="UTF-8"?>
<svg width="1200px" height="462px" viewBox="0 0 1200 462" version="1.1" xmlns="http://www.w3.org/2000/svg" xmlns:xlink="http://www.w3.org/1999/xlink">
    <!-- Generator: Sketch 3.8.1 (29687) - http://www.bohemiancoding.com/sketch -->
    <title>sails</title>
    <desc>Created with Sketch.</desc>
    <defs>
        <path d="M16.4727102,67.0037312 C16.7268911,67.4156389 16.9989093,67.8275467 17.2843055,68.2394544 C15.5083002,70.4817172 14.5523251,73.1885397 14.5552046,75.9668437 C14.5653371,80.6850198 17.3006927,85.0395309 21.7302427,87.3890455 C20.7366917,88.5657567 20.1982283,90.0158429 20.2006976,91.5081229 C20.2006976,95.2958375 23.5248758,98.3663869 27.6254573,98.3663869 C31.7260389,98.3663869 35.0502171,95.2958375 35.0502171,91.5081229 C35.047661,91.154789 35.014857,90.8021952 34.9521121,90.4536391 C38.7795602,92.8308099 43.2265003,94.2175673 47.8306143,94.4697396 C48.5448555,95.3856367 49.3382346,96.2465927 50.2029699,97.044163 C47.0217618,100.240626 45.2580803,104.42516 45.2620488,108.767057 C45.2620488,118.434532 53.8506897,126.269018 64.4371039,126.269018 C68.0653047,126.27192 71.620605,125.328116 74.6935287,123.546307 C76.0588956,129.380726 81.4846561,133.648076 87.9378891,133.962972 C94.3911221,134.277867 100.27343,130.562311 102.29669,124.893246 C104.267515,124.412417 105.795566,122.974083 106.278858,121.144885 C108.206518,121.476787 110.183982,121.476787 112.111642,121.144885 C113.618279,125.873297 117.927401,129.384411 123.194374,130.1752 C128.461347,130.965989 133.752521,128.896276 136.80287,124.852055 C138.75974,125.640145 140.821839,126.183176 142.934428,126.466733 C144.994583,135.620714 153.350636,142.418767 163.441582,143.150296 C173.532528,143.881824 182.934386,138.371104 186.515315,129.626066 C187.90508,129.938351 189.330289,130.095995 190.760583,130.09564 C200.535402,130.09564 208.459605,122.86666 208.459605,113.948857 C208.461711,110.394162 207.17782,106.940749 204.811885,104.137214 C205.510243,103.944404 206.182117,103.677637 206.814118,103.342232 C208.168673,103.562474 209.541309,103.674105 210.916688,103.675878 L211.661394,103.675878 C213.464203,105.609103 215.694992,107.162618 218.203209,108.231577 C219.056128,115.070245 225.51665,120.118806 232.959179,119.762599 C240.401707,119.406393 246.262759,113.76811 246.345947,106.884639 C246.351129,104.723311 245.758642,102.59657 244.624651,100.706023 C246.55189,99.3148794 247.116438,96.8448311 245.962446,94.8528138 C246.927096,94.1527486 247.813018,93.36478 248.60682,92.5008206 C248.880788,93.3955225 249.215909,94.2732746 249.610165,95.128792 C249.114348,95.6971086 248.843722,96.404895 248.843163,97.1347827 C248.855693,98.8441662 250.296282,100.253963 252.143056,100.364139 C251.593489,101.843575 251.313213,103.396925 251.313624,104.96103 C251.41792,111.395482 256.084951,117.0027 262.790105,118.74948 C269.495259,120.496261 276.646332,117.967814 280.374981,112.531894 C283.074498,114.875881 287.016301,115.529367 290.429788,114.198814 C293.843276,112.868261 296.086579,109.803866 296.152038,106.382112 C296.151198,106.083504 296.133336,105.785144 296.098526,105.488272 C296.764065,105.83049 297.448789,106.139855 298.149811,106.415064 C300.114946,114.831993 306.780705,121.64698 315.647342,124.304316 C324.513979,126.961652 334.241593,125.059768 341.182202,119.311896 C346.962284,121.553798 353.573847,120.972315 358.792038,117.763123 C363.867065,119.374203 369.368237,119.436295 374.484368,117.940243 C376.042757,118.256528 377.633516,118.416724 379.229079,118.418056 C384.236595,118.427073 389.096965,116.854502 393.003903,113.961214 C398.593728,116.725519 405.106257,117.441806 411.242502,115.967205 C414.203869,126.059137 424.285611,132.948114 435.599471,132.610617 C446.91333,132.27312 456.492863,124.79764 458.743127,114.550242 C461.655203,112.798726 464.117708,110.480525 465.958299,107.757883 L467.559193,107.675502 C468.569821,108.229719 469.668253,108.634178 470.814493,108.874153 C472.229053,110.202734 474.289631,110.756501 476.255023,110.336261 C478.220415,109.916022 479.807963,108.582212 480.446614,106.814615 L480.598231,106.699281 C485.258215,106.25442 489.757664,105.710702 494.069822,105.076364 C494.993464,112.203599 500.411147,118.143537 507.858356,120.194085 C515.305564,122.244633 523.359926,120.014151 528.357496,114.51729 C532.711874,120.902419 540.317179,124.76821 548.486845,124.749078 C561.467911,124.749078 572.005273,115.213414 572.15243,103.3999 C573.364351,102.202307 574.321877,100.805042 574.975177,99.2808221 C575.763461,99.4037516 576.56147,99.4657526 577.36091,99.4661806 C583.199353,99.4840232 588.448195,96.1824861 590.569402,91.1580013 C591.122357,90.9850001 591.666393,90.7996416 592.197052,90.5895687 C592.033776,91.1258681 591.949774,91.6801016 591.94733,92.2371996 C591.923656,95.1776817 594.097732,97.7450978 597.1931,98.4320505 C600.288468,99.1190032 603.487956,97.7441379 604.91306,95.1146742 C606.338164,92.4852105 605.612659,89.2953232 603.162508,87.417879 C603.283607,87.2805984 603.435826,87.1695201 603.608439,87.0924719 C606.854821,87.5043796 610.328627,87.9904308 613.989725,88.3281951 C616.468238,89.3539997 619.153397,89.8845873 621.869335,89.8852064 C623.031297,89.8847713 624.190886,89.7882746 625.334223,89.596871 C622.854987,91.9031934 621.463605,95.0214841 621.463537,98.2716481 C621.544924,103.388187 624.964999,107.952229 630.120657,109.824451 C635.276315,111.696673 641.14565,110.505982 644.977506,106.810496 C645.641372,106.89117 646.310154,106.932445 646.979738,106.934068 C653.303525,106.971314 659.005144,103.423189 661.343192,97.9956699 C663.938885,108.824685 674.357104,116.51683 686.36441,116.469732 C699.996536,116.469732 711.131446,106.74459 711.902908,94.4862159 C715.193951,95.7966749 718.927799,95.7787582 722.203926,94.436787 C730.347738,99.4862598 739.62551,102.763523 749.338858,104.02188 C763.109223,104.02188 774.270889,93.8354017 774.270889,81.2722155 C774.275039,76.0476714 772.308794,70.9849654 768.710123,66.9543022 C774.507821,66.1416315 779.186889,62.1522852 780.527308,56.8790388 L780.97324,56.8790388 C788.376081,56.7961274 794.467481,51.4729987 794.967176,44.6500734 C795.466871,37.8271481 790.207127,31.7947066 782.883825,30.7915846 C775.560522,29.7884627 768.631907,34.1513825 766.966531,40.8146367 L766.484925,40.8146367 C762.707777,40.8076138 759.077648,42.1663224 756.371198,44.6000689 C755.844999,44.287019 755.305422,43.9863264 754.752467,43.7103482 C755.20854,42.3270814 755.43997,40.8889784 755.439201,39.442984 C755.323844,32.2862857 749.753952,26.2004633 742.133307,24.904585 C734.512662,23.6087066 726.961631,27.4633371 724.094675,34.1128977 C719.949258,28.1528356 713.15986,24.1938913 705.551842,23.3004454 C697.943823,22.4069995 690.297957,24.6707418 684.66987,29.4830547 C680.318485,21.5838871 671.522363,16.621268 661.927363,16.6521284 C659.7073,16.6511225 657.496434,16.9155676 655.349873,17.4388722 C647.192138,17.763815 639.720328,21.7482997 635.336466,28.1114019 C632.065754,26.3549051 628.406707,25.3057378 624.63411,25.0426892 C621.915039,19.9384585 616.615589,16.426028 610.509991,15.6813424 C604.404393,14.9366568 598.299581,17.0581362 594.239418,21.3355195 C591.499531,12.0156635 582.322033,5.55928466 571.867034,5.59652454 C559.091096,5.59652454 548.736566,15.0456882 548.736566,26.6985583 L548.736566,27.1640141 C545.002083,27.4232243 541.376076,28.443081 538.118937,30.1503452 C537.046712,29.9523365 535.95699,29.8461632 534.863637,29.8331763 C534.894852,29.4912928 534.912689,29.1494094 534.912689,28.7992878 C534.897482,23.6858271 531.672098,19.0449432 526.645119,16.9033921 C523.737143,6.97384396 514.012152,0.0580107596 502.87621,0.000362957573 C491.740269,-0.0572848445 481.931971,6.75742972 478.903691,16.6562475 C477.821939,16.8395506 476.755129,17.0914095 475.710821,17.4100387 C471.954068,14.2240171 466.606933,13.2004311 461.78884,14.7449956 C459.193508,10.8323695 453.980782,9.14053134 449.306319,10.6936788 C444.631855,12.2468263 441.780238,16.6181414 442.477765,21.1613361 C443.175293,25.7045308 447.230279,29.1710968 452.187934,29.4624593 C447.862431,30.1485308 443.598018,31.1301945 439.429833,32.3993615 C438.49969,29.5350731 435.826222,27.4483413 432.61362,27.0790779 C429.401018,26.7098146 426.255426,28.1276911 424.593692,30.6940634 C421.43815,26.4722006 416.354236,23.8271758 410.809949,23.5227496 C410.970099,22.6074952 411.050624,21.6818618 411.050752,20.7547296 C411.050752,11.1160883 402.484407,3.30219841 391.92029,3.30219841 C383.751371,3.27556461 376.467193,8.04752088 373.793174,15.1774987 C369.876603,9.00120983 362.701621,5.21292144 354.952567,5.22992665 C342.948091,5.22992665 333.213406,14.1106576 333.213406,25.0632846 C333.215681,25.9298695 333.279737,26.7953755 333.405156,27.6541843 C329.922638,25.3670425 325.099507,26.0717372 322.551183,29.2400291 C319.608035,28.6633583 316.424084,28.11964 313.026086,27.6171126 L312.99933,27.5923981 C314.020093,25.8299064 314.553196,23.8616106 314.551172,21.8627614 C314.551172,14.9857276 308.515742,9.41079026 301.070662,9.41079026 C293.625582,9.41079026 287.590153,14.9857276 287.590153,21.8627614 C287.596438,22.9004059 287.746296,23.9330522 288.036084,24.9355932 C281.859933,24.4824947 275.340414,24.1323731 268.566714,23.9058238 C265.337041,14.5679011 255.904972,8.25770822 245.292692,8.33516166 C234.680412,8.41261509 225.357468,14.8596909 222.287942,24.2435882 L220.544349,24.3300888 C212.06735,16.7402938 199.035234,15.5729206 189.137393,21.5167589 C184.516497,15.5638075 176.831359,12.3126996 168.933218,12.9696188 C161.035076,13.626538 154.102307,18.0934742 150.707015,24.713163 C149.725684,24.1955245 148.565843,24.047956 147.469552,24.3012552 C145.801416,15.7335353 137.640338,9.55560483 128.217955,9.72780872 C118.795573,9.90001262 110.905441,16.3712957 109.605507,24.9932603 C106.884162,24.1002136 104.020682,23.6324658 101.132808,23.6092502 C99.3098481,22.4315849 97.0369473,22.0113861 94.8637213,22.4502632 C92.6904953,22.8891403 90.8148014,24.1471364 89.6902056,25.9200527 C86.2924969,27.4139803 83.2896001,29.5762081 80.8919768,32.2551938 C69.5846691,28.2369536 56.8502723,33.0940791 51.9064283,43.3107977 C50.6232889,42.0752917 49.1776163,40.9931573 47.6031892,40.0896791 C44.6037396,30.4867064 35.0699036,23.8881962 24.2497558,23.9264192 C10.8718103,23.9264192 0,33.8122051 0,46.0499842 C0.0394431956,55.5805043 6.67373652,64.0195105 16.4727102,67.0037312 L16.4727102,67.0037312 Z" id="path-1"></path>
        <filter x="-50%" y="-50%" width="200%" height="200%" filterUnits="objectBoundingBox" id="filter-2">
            <feMorphology radius="1" operator="dilate" in="SourceAlpha" result="shadowSpreadOuter1"></feMorphology>
            <feOffset dx="0" dy="0" in="shadowSpreadOuter1" result="shadowOffsetOuter1"></feOffset>
            <feGaussianBlur stdDeviation="4.5" in="shadowOffsetOuter1" result="shadowBlurOuter1"></feGaussianBlur>
            <feComposite in="shadowBlurOuter1" in2="SourceAlpha" operator="out" result="shadowBlurOuter1"></feComposite>
            <feColorMatrix values="0 0 0 0 0.492293793   0 0 0 0 0.492293793   0 0 0 0 0.492293793  0 0 0 0.5 0" type="matrix" in="shadowBlurOuter1"></feColorMatrix>
        </filter>
    </defs>
    <g id="Page-1" stroke="none" stroke-width="1" fill="none" fill-rule="evenodd">
        <g id="Desktop-HD-Copy">
            <g id="middle_clouds" transform="translate(224.000000, 286.000000)">
                <g id="middle-cloud">
                    <use fill="black" fill-opacity="1" filter="url(#filter-2)" xlink:href="#path-1"></use>
                    <use fill-opacity="0.8" fill="#FFFFFF" fill-rule="evenodd" xlink:href="#path-1"></use>
                </g>
            </g>
        </g>
    </g>
</svg>