<?xml version="1.0" encoding="UTF-8"?>
<svg width="1200px" height="462px" viewBox="0 0 1200 462" version="1.1" xmlns="http://www.w3.org/2000/svg" xmlns:xlink="http://www.w3.org/1999/xlink">
    <!-- Generator: Sketch 3.8.1 (29687) - http://www.bohemiancoding.com/sketch -->
    <title>sails</title>
    <desc>Created with Sketch.</desc>
    <defs></defs>
    <g id="Page-1" stroke="none" stroke-width="1" fill="none" fill-rule="evenodd">
        <g id="Desktop-HD-Copy">
            <g id="windmill" transform="translate(498.000000, 226.000000)">
                <g id="sails" transform="translate(47.404332, 0.000000)">
                    <path d="M98.2898783,96.788937 C98.2544458,96.5358467 98.1481481,96.3189122 97.9709854,96.1381335 L97.8292552,95.9935105 L65.6565049,63.6702719 L53.6803049,51.6304079 C53.2196818,51.1603832 52.4755983,51.1603832 52.0149753,51.6304079 L51.3417569,52.3173671 C50.8811338,52.7873918 50.8811338,53.5105068 51.3417569,53.9805315 L62.0069528,64.6826329 L56.4086108,70.2867738 C55.6999599,71.0098888 55.6999599,72.2030284 56.4086108,72.9261434 L88.5813611,105.249382 C89.290012,105.972497 90.4947185,105.972497 91.2033694,105.249382 L97.8292552,98.5967244 C98.3253109,98.1266996 98.467041,97.4035847 98.2898783,96.788937 L98.2898783,96.788937 L98.2898783,96.788937 Z M89.4317422,98.2713226 L87.5892499,96.4273795 L89.8215002,94.1857231 L91.6639925,96.0296663 L89.4317422,98.2713226 L89.4317422,98.2713226 L89.4317422,98.2713226 Z M87.0931943,95.921199 L85.250702,94.0772559 L87.4829523,91.8355995 L89.3254446,93.6795426 L87.0931943,95.921199 L87.0931943,95.921199 L87.0931943,95.921199 Z M84.7546463,93.5710754 L82.6641262,91.474042 L84.8963765,89.2323857 L86.9868966,91.329419 L84.7546463,93.5710754 L84.7546463,93.5710754 L84.7546463,93.5710754 Z M82.1680706,90.9678616 L80.2547132,89.0516069 L82.4869635,86.8099506 L84.4003209,88.7262052 L82.1680706,90.9678616 L82.1680706,90.9678616 L82.1680706,90.9678616 Z M79.7586576,88.5454265 L77.9161653,86.7014833 L80.1484156,84.4598269 L81.9909079,86.3037701 L79.7586576,88.5454265 L79.7586576,88.5454265 L79.7586576,88.5454265 Z M77.4201096,86.1953028 L75.4004546,84.170581 L77.6327049,81.9289246 L79.6523599,83.9536465 L77.4201096,86.1953028 L77.4201096,86.1953028 L77.4201096,86.1953028 Z M74.904399,83.7005562 L73.0619067,81.8566131 L75.294157,79.6149567 L77.1366493,81.4588999 L74.904399,83.7005562 L74.904399,83.7005562 L74.904399,83.7005562 Z M72.6012836,81.3504326 L70.5816286,79.3257108 L72.8138789,77.0840544 L74.7981014,79.1087763 L72.6012836,81.3504326 L72.6012836,81.3504326 L72.6012836,81.3504326 Z M70.0855729,78.8195303 L68.2430806,76.9755871 L70.4753309,74.7339308 L72.3178232,76.5778739 L70.0855729,78.8195303 L70.0855729,78.8195303 L70.0855729,78.8195303 Z M67.747025,76.5055624 L65.7628025,74.4808405 L67.9950528,72.2391842 L69.9792753,74.2639061 L67.747025,76.5055624 L67.747025,76.5055624 L67.747025,76.5055624 Z M65.2313143,73.9746601 L63.388822,72.1307169 L65.6210723,69.8890606 L67.4635646,71.7330037 L65.2313143,73.9746601 L65.2313143,73.9746601 L65.2313143,73.9746601 Z M62.8927664,71.6245365 L60.6605161,69.3828801 L61.9006552,68.1535847 C62.4675759,67.6112485 63.4242546,67.68356 64.0620404,68.3343634 L65.1250167,69.3828801 L62.8927664,71.6245365 L62.8927664,71.6245365 L62.8927664,71.6245365 Z M92.1600481,96.5358467 L93.1521594,97.5482077 C93.7899452,98.1990111 93.8962428,99.1752163 93.3293221,99.7175525 L92.089183,100.946848 L89.8923653,98.7413473 L92.1600481,96.5358467 L92.1600481,96.5358467 L92.1600481,96.5358467 Z M58.8888889,71.1906675 L60.1644605,69.8890606 L62.3967108,72.1307169 L60.1290279,74.408529 L59.0660516,73.3600124 C58.4282658,72.7092089 58.3219682,71.7330037 58.8888889,71.1906675 L58.8888889,71.1906675 L58.8888889,71.1906675 Z M62.8927664,72.6368974 L64.7352587,74.4808405 L62.4675759,76.7586527 L60.6250836,74.9147095 L62.8927664,72.6368974 L62.8927664,72.6368974 L62.8927664,72.6368974 Z M65.2313143,74.987021 L67.2509694,77.0117429 L64.9832865,79.289555 L62.999064,77.2648331 L65.2313143,74.987021 L65.2313143,74.987021 L65.2313143,74.987021 Z M67.747025,77.4817676 L69.5895173,79.3257108 L67.3218345,81.6035229 L65.4793422,79.7595797 L67.747025,77.4817676 L67.747025,77.4817676 L67.747025,77.4817676 Z M70.0855729,79.8318912 L72.0697954,81.8566131 L69.8021126,84.1344252 L67.8178901,82.1097033 L70.0855729,79.8318912 L70.0855729,79.8318912 L70.0855729,79.8318912 Z M72.6012836,82.3627936 L74.4437759,84.2067367 L72.1760931,86.4845488 L70.3336007,84.6406057 L72.6012836,82.3627936 L72.6012836,82.3627936 L72.6012836,82.3627936 Z M74.904399,84.7129172 L76.924054,86.7376391 L74.6563712,89.0154512 L72.6367161,86.9907293 L74.904399,84.7129172 L74.904399,84.7129172 L74.904399,84.7129172 Z M77.4201096,87.2076638 L79.262602,89.0516069 L76.9949191,91.329419 L75.1524268,89.4854759 L77.4201096,87.2076638 L77.4201096,87.2076638 L77.4201096,87.2076638 Z M79.7586576,89.5577874 L81.672015,91.474042 L79.4043321,93.7518541 L77.4909747,91.8355995 L79.7586576,89.5577874 L79.7586576,89.5577874 L79.7586576,89.5577874 Z M82.1680706,91.9802225 L84.2585907,94.0772559 L81.9909079,96.355068 L79.9003878,94.2580346 L82.1680706,91.9802225 L82.1680706,91.9802225 L82.1680706,91.9802225 Z M84.7546463,94.5834363 L86.5971387,96.4273795 L84.3294558,98.7051916 L82.4869635,96.8612485 L84.7546463,94.5834363 L84.7546463,94.5834363 L84.7546463,94.5834363 Z M87.0931943,96.93356 L88.9356866,98.7775031 L86.6680037,101.055315 L84.8255114,99.2113721 L87.0931943,96.93356 L87.0931943,96.93356 L87.0931943,96.93356 Z M90.3175558,102.754635 C89.7506351,103.296972 88.7939564,103.22466 88.1561706,102.573857 L87.1640594,101.561496 L89.4317422,99.2836836 L91.62856,101.489184 L90.3175558,102.754635 L90.3175558,102.754635 L90.3175558,102.754635 Z" id="Shape" fill="#9E005D"></path>
                    <path d="M7.29910416,9.36433869 C7.3345367,9.61742892 7.44083434,9.83436341 7.61799706,10.0151422 L7.75972724,10.1597651 L39.9324776,42.4830037 L51.9086776,54.5228677 C52.3693007,54.9928925 53.1133841,54.9928925 53.5740072,54.5228677 L54.2472256,53.8359085 C54.7078486,53.3658838 54.7078486,52.6427689 54.2472256,52.1727441 L43.5820297,41.434487 L49.1803717,35.8303461 C49.8890226,35.1072311 49.8890226,33.9140915 49.1803717,33.1909765 L17.0076213,0.867737948 C16.2989705,0.144622991 15.0942639,0.144622991 14.385613,0.867737948 L7.75972724,7.52039555 C7.26367161,8.02657602 7.12194144,8.74969098 7.29910416,9.36433869 L7.29910416,9.36433869 L7.29910416,9.36433869 Z M16.1572403,7.88195303 L17.9997326,9.72589617 L15.8029148,11.9313968 L13.9604225,10.0874536 L16.1572403,7.88195303 L16.1572403,7.88195303 L16.1572403,7.88195303 Z M18.4957882,10.2320766 L20.3382805,12.0760198 L18.1060302,14.3176761 L16.2635379,12.473733 L18.4957882,10.2320766 L18.4957882,10.2320766 L18.4957882,10.2320766 Z M20.8343361,12.5822002 L22.9248563,14.6792336 L20.692606,16.92089 L18.6020858,14.8238566 L20.8343361,12.5822002 L20.8343361,12.5822002 L20.8343361,12.5822002 Z M23.4209119,15.1492583 L25.3342693,17.065513 L23.102019,19.3071693 L21.1886616,17.3909147 L23.4209119,15.1492583 L23.4209119,15.1492583 L23.4209119,15.1492583 Z M25.8303249,17.6078492 L27.6728172,19.4517923 L25.4405669,21.6934487 L23.5980746,19.8495056 L25.8303249,17.6078492 L25.8303249,17.6078492 L25.8303249,17.6078492 Z M28.1688728,19.9579728 L30.1885279,21.9826947 L27.9562776,24.2243511 L25.9366225,22.1996292 L28.1688728,19.9579728 L28.1688728,19.9579728 L28.1688728,19.9579728 Z M30.6845835,22.4527194 L32.5270758,24.2966625 L30.2948255,26.5383189 L28.4523332,24.6943758 L30.6845835,22.4527194 L30.6845835,22.4527194 L30.6845835,22.4527194 Z M32.9876989,24.802843 L34.9719214,26.8275649 L32.7396711,29.0692213 L30.7554486,27.0444994 L32.9876989,24.802843 L32.9876989,24.802843 L32.9876989,24.802843 Z M35.5034095,27.2975896 L37.3459019,29.1415328 L35.1136516,31.3831891 L33.2711592,29.539246 L35.5034095,27.2975896 L35.5034095,27.2975896 L35.5034095,27.2975896 Z M37.8419575,29.6477132 L39.82618,31.6724351 L37.6293622,33.9140915 L35.6097072,31.8893696 L37.8419575,29.6477132 L37.8419575,29.6477132 L37.8419575,29.6477132 Z M40.3576681,32.1786156 L42.2001604,34.0225587 L39.9679101,36.2642151 L38.1254178,34.4202719 L40.3576681,32.1786156 L40.3576681,32.1786156 L40.3576681,32.1786156 Z M42.6607835,34.5287392 L44.8930338,36.7703956 L43.6528948,37.999691 C43.1214066,38.5420272 42.1292954,38.4697157 41.4915096,37.8189122 L40.4285332,36.7703956 L42.6607835,34.5287392 L42.6607835,34.5287392 L42.6607835,34.5287392 Z M13.4289343,9.61742892 L12.4368231,8.60506799 C11.7990373,7.95426452 11.6927397,6.97805933 12.2596604,6.43572311 L13.4997994,5.20642769 L15.6966172,7.41192831 L13.4289343,9.61742892 L13.4289343,9.61742892 L13.4289343,9.61742892 Z M46.7000936,34.9626082 L45.424522,36.2642151 L43.1922717,34.0225587 L45.4599545,31.7447466 L46.5229309,32.7932633 C47.1607167,33.4440667 47.2670143,34.4202719 46.7000936,34.9626082 L46.7000936,34.9626082 L46.7000936,34.9626082 Z M42.6962161,33.5163782 L40.8537238,31.6724351 L43.1214066,29.394623 L44.9638989,31.2385661 L42.6962161,33.5163782 L42.6962161,33.5163782 L42.6962161,33.5163782 Z M40.3576681,31.1662546 L38.3734456,29.1415328 L40.6411285,26.8637206 L42.625351,28.8884425 L40.3576681,31.1662546 L40.3576681,31.1662546 L40.3576681,31.1662546 Z M37.8419575,28.6353523 L35.9994652,26.7914091 L38.267148,24.513597 L40.1096403,26.3575402 L37.8419575,28.6353523 L37.8419575,28.6353523 L37.8419575,28.6353523 Z M35.5034095,26.3213844 L33.5191871,24.2966625 L35.7868699,22.0188504 L37.7710924,24.0435723 L35.5034095,26.3213844 L35.5034095,26.3213844 L35.5034095,26.3213844 Z M32.9876989,23.7904821 L31.1452066,21.9465389 L33.4128894,19.6687268 L35.2553817,21.51267 L32.9876989,23.7904821 L32.9876989,23.7904821 L32.9876989,23.7904821 Z M30.6845835,21.4403585 L28.6649285,19.4156366 L30.9326113,17.1378245 L32.9522663,19.1625464 L30.6845835,21.4403585 L30.6845835,21.4403585 L30.6845835,21.4403585 Z M28.1688728,18.9456119 L26.3263805,17.1016687 L28.5940634,14.8238566 L30.4365557,16.6677998 L28.1688728,18.9456119 L28.1688728,18.9456119 L28.1688728,18.9456119 Z M25.8303249,16.5954883 L23.9169675,14.6792336 L26.1846504,12.4014215 L28.0980078,14.3176761 L25.8303249,16.5954883 L25.8303249,16.5954883 L25.8303249,16.5954883 Z M23.4209119,14.1730532 L21.3303918,12.0760198 L23.5980746,9.79820766 L25.6885947,11.895241 L23.4209119,14.1730532 L23.4209119,14.1730532 L23.4209119,14.1730532 Z M20.8343361,11.5698393 L18.9918438,9.72589617 L21.2595267,7.44808405 L23.102019,9.29202719 L20.8343361,11.5698393 L20.8343361,11.5698393 L20.8343361,11.5698393 Z M18.4957882,9.2197157 L16.6532959,7.37577256 L18.9209787,5.09796044 L20.7634711,6.94190358 L18.4957882,9.2197157 L18.4957882,9.2197157 L18.4957882,9.2197157 Z M15.2714267,3.3986403 C15.8029148,2.85630408 16.7950261,2.92861557 17.4328119,3.57941904 L18.4249231,4.59177998 L16.1572403,6.86959209 L13.9604225,4.66409147 L15.2714267,3.3986403 L15.2714267,3.3986403 L15.2714267,3.3986403 Z" id="Shape" fill="#9E005D"></path>
                    <path d="M9.28332665,98.7775031 C9.53135446,98.7413473 9.74394973,98.6328801 9.95654499,98.4521014 L10.0982752,98.3074784 L42.2710255,65.9842398 L54.2472256,53.9443758 C54.7078486,53.4743511 54.7078486,52.7512361 54.2472256,52.2812114 L53.5740072,51.5942522 C53.1133841,51.1242274 52.3693007,51.1242274 51.9086776,51.5942522 L41.2434817,62.3325093 L35.6451397,56.7283684 C34.9364888,56.0052534 33.7317823,56.0052534 33.0231314,56.7283684 L0.814948523,89.0516069 C0.106297633,89.7747219 0.106297633,90.9678616 0.814948523,91.6909765 L7.44083434,98.3436341 C7.93688996,98.7775031 8.64554085,98.9582818 9.28332665,98.7775031 L9.28332665,98.7775031 L9.28332665,98.7775031 Z M7.79515978,89.8470334 L9.63765209,88.0030902 L11.8344698,90.2447466 L9.99197754,92.0886897 L7.79515978,89.8470334 L7.79515978,89.8470334 L7.79515978,89.8470334 Z M10.1337077,87.5330655 L11.9762,85.6891224 L14.2084503,87.9307787 L12.365958,89.7747219 L10.1337077,87.5330655 L10.1337077,87.5330655 L10.1337077,87.5330655 Z M12.4722556,85.1829419 L14.5627758,83.0859085 L16.7950261,85.3275649 L14.7045059,87.4245983 L12.4722556,85.1829419 L12.4722556,85.1829419 L12.4722556,85.1829419 Z M15.0588314,82.5797281 L16.9721888,80.6634734 L19.2044391,82.9051298 L17.2910817,84.8213844 L15.0588314,82.5797281 L15.0588314,82.5797281 L15.0588314,82.5797281 Z M17.4682444,80.157293 L19.3107367,78.3133498 L21.542987,80.5550062 L19.7004947,82.3989493 L17.4682444,80.157293 L17.4682444,80.157293 L17.4682444,80.157293 Z M19.8067924,77.8071693 L21.7910148,75.7824475 L24.0232651,78.0241038 L22.0036101,80.0488257 L19.8067924,77.8071693 L19.8067924,77.8071693 L19.8067924,77.8071693 Z M22.2870705,75.276267 L24.1295628,73.4323239 L26.3618131,75.6739802 L24.5193208,77.5179234 L22.2870705,75.276267 L22.2870705,75.276267 L22.2870705,75.276267 Z M24.6256184,72.9622991 L26.6098409,70.9375773 L28.8420912,73.1792336 L26.8224362,75.2039555 L24.6256184,72.9622991 L24.6256184,72.9622991 L24.6256184,72.9622991 Z M27.1413291,70.4313968 L28.9838214,68.5874536 L31.2160717,70.82911 L29.3735794,72.6730532 L27.1413291,70.4313968 L27.1413291,70.4313968 L27.1413291,70.4313968 Z M29.479877,68.0812732 L31.4640995,66.0565513 L33.6963498,68.2982077 L31.6766947,70.3229295 L29.479877,68.0812732 L29.479877,68.0812732 L29.479877,68.0812732 Z M31.9601551,65.5865266 L33.8026474,63.7425834 L36.0348977,65.9842398 L34.1924054,67.8281829 L31.9601551,65.5865266 L31.9601551,65.5865266 L31.9601551,65.5865266 Z M34.298703,63.236403 L36.5309533,60.9947466 L37.7710924,62.224042 C38.3025806,62.7663782 38.2317155,63.7425834 37.5939297,64.3933869 L36.5309533,65.4419036 L34.298703,63.236403 L34.298703,63.236403 L34.298703,63.236403 Z M9.49592191,92.5948702 L8.50381067,93.6072311 C7.86602487,94.2580346 6.87391362,94.3665019 6.34242546,93.7880099 L5.1022864,92.5587145 L7.29910416,90.3532138 L9.49592191,92.5948702 L9.49592191,92.5948702 L9.49592191,92.5948702 Z M34.7593261,59.1869592 L36.0348977,60.4885661 L33.8026474,62.7302225 L31.5349646,60.4524104 L32.5979409,59.4038937 C33.2357267,58.7169345 34.2278379,58.644623 34.7593261,59.1869592 L34.7593261,59.1869592 L34.7593261,59.1869592 Z M33.3065918,63.236403 L31.4640995,65.0803461 L29.1964166,62.802534 L31.0389089,60.9585909 L33.3065918,63.236403 L33.3065918,63.236403 L33.3065918,63.236403 Z M30.9680439,65.5865266 L28.9483888,67.6112485 L26.680706,65.3334363 L28.700361,63.3087145 L30.9680439,65.5865266 L30.9680439,65.5865266 L30.9680439,65.5865266 Z M28.4877657,68.0812732 L26.6452734,69.9252163 L24.3775906,67.6474042 L26.2200829,65.8034611 L28.4877657,68.0812732 L28.4877657,68.0812732 L28.4877657,68.0812732 Z M26.1492178,70.4313968 L24.1295628,72.4561187 L21.8618799,70.1783066 L23.8461024,68.1535847 L26.1492178,70.4313968 L26.1492178,70.4313968 L26.1492178,70.4313968 Z M23.6335072,72.9622991 L21.7910148,74.8062423 L19.523332,72.5284302 L21.3658243,70.684487 L23.6335072,72.9622991 L23.6335072,72.9622991 L23.6335072,72.9622991 Z M21.2949592,75.276267 L19.3107367,77.3009889 L17.0430539,75.0231768 L19.0272764,72.9984549 L21.2949592,75.276267 L21.2949592,75.276267 L21.2949592,75.276267 Z M18.8146811,77.8071693 L16.9721888,79.6511125 L14.7045059,77.3733004 L16.5469983,75.5293572 L18.8146811,77.8071693 L18.8146811,77.8071693 L18.8146811,77.8071693 Z M16.4761332,80.157293 L14.5627758,82.0735476 L12.2950929,79.7957355 L14.2084503,77.8794808 L16.4761332,80.157293 L16.4761332,80.157293 L16.4761332,80.157293 Z M14.0312876,82.5797281 L11.9407675,84.6767614 L9.67308464,82.3989493 L11.7636048,80.3019159 L14.0312876,82.5797281 L14.0312876,82.5797281 L14.0312876,82.5797281 Z M11.4447119,85.1829419 L9.60221955,87.026885 L7.3345367,84.7490729 L9.17702901,82.9051298 L11.4447119,85.1829419 L11.4447119,85.1829419 L11.4447119,85.1829419 Z M9.14159647,87.5330655 L7.29910416,89.3770087 L5.03142131,87.0991965 L6.87391362,85.2552534 L9.14159647,87.5330655 L9.14159647,87.5330655 L9.14159647,87.5330655 Z M3.33065918,90.7509271 C2.76373847,90.2085909 2.8700361,89.2323857 3.5078219,88.5815822 L4.49993315,87.5692213 L6.76761599,89.8470334 L4.57079824,92.052534 L3.33065918,90.7509271 L3.33065918,90.7509271 L3.33065918,90.7509271 Z" id="Shape" fill="#9E005D"></path>
                    <path d="M96.3056558,7.37577256 C96.057628,7.41192831 95.8450328,7.52039555 95.6324375,7.70117429 L95.4907073,7.84579728 L63.3179569,40.1690358 L51.3417569,52.2088999 C50.8811338,52.6789246 50.8811338,53.4020396 51.3417569,53.8720643 L52.0149753,54.5590235 C52.4755983,55.0290482 53.2196818,55.0290482 53.6803049,54.5590235 L64.3455007,43.8207664 L69.9438428,49.4249073 C70.6524936,50.1480222 71.8572002,50.1480222 72.565851,49.4249073 L104.738601,17.1016687 C105.482685,16.3785538 105.447252,15.1854141 104.738601,14.4622991 L98.1127156,7.80964153 C97.6520925,7.37577256 96.9434416,7.19499382 96.3056558,7.37577256 L96.3056558,7.37577256 L96.3056558,7.37577256 Z M97.7938227,16.2700865 L95.9513304,18.1140297 L93.7545126,15.8723733 L95.5970049,14.0284302 L97.7938227,16.2700865 L97.7938227,16.2700865 L97.7938227,16.2700865 Z M95.4552748,18.6202101 L93.6127825,20.4641533 L91.3805322,18.2224969 L93.2230245,16.3785538 L95.4552748,18.6202101 L95.4552748,18.6202101 L95.4552748,18.6202101 Z M93.1167268,20.9703337 L91.0262067,23.0673671 L88.7939564,20.8257108 L90.8844765,18.7286774 L93.1167268,20.9703337 L93.1167268,20.9703337 L93.1167268,20.9703337 Z M90.5301511,23.5735476 L88.6167937,25.4898022 L86.3845434,23.2481459 L88.2979008,21.3318912 L90.5301511,23.5735476 L90.5301511,23.5735476 L90.5301511,23.5735476 Z M88.1207381,25.9959827 L86.2782458,27.8399258 L84.0459955,25.5982695 L85.8884878,23.7543263 L88.1207381,25.9959827 L88.1207381,25.9959827 L88.1207381,25.9959827 Z M85.7821901,28.3461063 L83.7625351,30.3708282 L81.5302848,28.1291718 L83.5499398,26.1044499 L85.7821901,28.3461063 L85.7821901,28.3461063 L85.7821901,28.3461063 Z M83.301912,30.8408529 L81.4594197,32.684796 L79.2271694,30.4431397 L81.0696617,28.5991965 L83.301912,30.8408529 L83.301912,30.8408529 L83.301912,30.8408529 Z M80.9633641,33.1909765 L78.9791416,35.2156984 L76.7468913,32.974042 L78.7665463,30.9493201 L80.9633641,33.1909765 L80.9633641,33.1909765 L80.9633641,33.1909765 Z M78.4476534,35.7218789 L76.6051611,37.565822 L74.4083434,35.3603214 L76.2508357,33.5163782 L78.4476534,35.7218789 L78.4476534,35.7218789 L78.4476534,35.7218789 Z M76.1091055,38.0720025 L74.124883,40.0967244 L71.8926327,37.855068 L73.9122877,35.8303461 L76.1091055,38.0720025 L76.1091055,38.0720025 L76.1091055,38.0720025 Z M73.6288274,40.5667491 L71.7863351,42.4106922 L69.5540848,40.2051916 L71.3965771,38.3612485 L73.6288274,40.5667491 L73.6288274,40.5667491 L73.6288274,40.5667491 Z M71.2902794,42.9168727 L69.0580291,45.158529 L67.8178901,43.9292336 C67.2864019,43.3868974 67.357267,42.4106922 67.9950528,41.7598888 L69.0580291,40.7113721 L71.2902794,42.9168727 L71.2902794,42.9168727 L71.2902794,42.9168727 Z M96.0930606,13.5584054 L97.0851718,12.5460445 C97.7229576,11.895241 98.7150689,11.7867738 99.246557,12.3652658 L100.486696,13.5945612 L98.2898783,15.8000618 L96.0930606,13.5584054 L96.0930606,13.5584054 L96.0930606,13.5584054 Z M70.8296564,46.9663164 L69.5540848,45.6647095 L71.7863351,43.4230532 L74.0540179,45.7008653 L72.9910416,46.749382 C72.3532558,47.4363412 71.3611445,47.5086527 70.8296564,46.9663164 L70.8296564,46.9663164 L70.8296564,46.9663164 Z M72.2823907,42.9168727 L74.124883,41.0729295 L76.3925659,43.3507417 L74.5500735,45.1946848 L72.2823907,42.9168727 L72.2823907,42.9168727 L72.2823907,42.9168727 Z M74.6209386,40.5667491 L76.6051611,38.5420272 L78.872844,40.8198393 L76.8531889,42.8445612 L74.6209386,40.5667491 L74.6209386,40.5667491 L74.6209386,40.5667491 Z M77.1012167,38.0720025 L78.9437091,36.2280593 L81.2113919,38.5058714 L79.3688996,40.3498146 L77.1012167,38.0720025 L77.1012167,38.0720025 L77.1012167,38.0720025 Z M79.4397647,35.7218789 L81.4594197,33.697157 L83.7271026,35.9749691 L81.7428801,37.999691 L79.4397647,35.7218789 L79.4397647,35.7218789 L79.4397647,35.7218789 Z M81.9554753,33.1909765 L83.7979676,31.3470334 L86.0656505,33.6248455 L84.2231582,35.4687886 L81.9554753,33.1909765 L81.9554753,33.1909765 L81.9554753,33.1909765 Z M84.2940233,30.8408529 L86.3136783,28.816131 L88.5813611,31.0939431 L86.5617061,33.118665 L84.2940233,30.8408529 L84.2940233,30.8408529 L84.2940233,30.8408529 Z M86.7743014,28.3461063 L88.6167937,26.5021632 L90.8844765,28.7799753 L89.0419842,30.6239184 L86.7743014,28.3461063 L86.7743014,28.3461063 L86.7743014,28.3461063 Z M89.1128493,25.9959827 L91.0262067,24.0797281 L93.2938896,26.3575402 L91.3805322,28.2737948 L89.1128493,25.9959827 L89.1128493,25.9959827 L89.1128493,25.9959827 Z M91.5576949,23.5735476 L93.648215,21.4765142 L95.9158978,23.7543263 L93.8253777,25.8513597 L91.5576949,23.5735476 L91.5576949,23.5735476 L91.5576949,23.5735476 Z M94.1442706,20.9703337 L95.9867629,19.1263906 L98.2544458,21.4042027 L96.4119535,23.2481459 L94.1442706,20.9703337 L94.1442706,20.9703337 L94.1442706,20.9703337 Z M96.447386,18.6202101 L98.2898783,16.776267 L100.557561,19.0540791 L98.7150689,20.8980222 L96.447386,18.6202101 L96.447386,18.6202101 L96.447386,18.6202101 Z M102.258323,15.3661928 C102.789811,15.908529 102.718946,16.8847342 102.081161,17.5355377 L101.089049,18.5478986 L98.8213665,16.2700865 L101.018184,14.0645859 L102.258323,15.3661928 L102.258323,15.3661928 L102.258323,15.3661928 Z" id="Shape" fill="#9E005D"></path>
                    <g id="rotor" transform="translate(49.605562, 49.894932)">
                        <ellipse id="Oval" fill="#D4145A" cx="3.188929" cy="3.18170581" rx="3.08263137" ry="3.14555006"></ellipse>
                        <ellipse id="Oval" fill="#F77A76" cx="3.36609172" cy="3.18170581" rx="1.94878995" ry="1.98856613"></ellipse>
                        <path d="M2.2322503,4.12175525 C1.66532959,3.54326329 1.66532959,2.60321384 2.2322503,2.02472188 C2.79917101,1.44622991 3.72041717,1.44622991 4.28733788,2.02472188 C4.85425859,2.60321384 2.79917101,4.66409147 2.2322503,4.12175525 L2.2322503,4.12175525 L2.2322503,4.12175525 Z" id="Shape" fill="#FF9999"></path>
                    </g>
                </g>
            </g>
        </g>
    </g>
</svg>