<?xml version="1.0" encoding="UTF-8"?>
<svg width="1200px" height="462px" viewBox="0 0 1200 462" version="1.1" xmlns="http://www.w3.org/2000/svg" xmlns:xlink="http://www.w3.org/1999/xlink">
    <!-- Generator: Sketch 3.8.1 (29687) - http://www.bohemiancoding.com/sketch -->
    <title>sails</title>
    <desc>Created with Sketch.</desc>
    <defs></defs>
    <g id="Page-1" stroke="none" stroke-width="1" fill="none" fill-rule="evenodd">
        <g id="Desktop-HD-Copy" fill="#F77A76">
            <g id="sun" transform="translate(514.000000, 0.000000)">
                <path d="M85.5,170.815135 C44.7950356,170.813652 9.75954101,142.058706 1.81974456,102.135608 C-6.12005189,62.2125102 15.2471829,22.2403442 52.8541509,6.66439829 C90.4611188,-8.9115476 133.833807,4.2468233 156.447311,38.0924073 C179.060815,71.9379913 174.616991,117.044368 145.833493,145.826383 C129.866863,161.879572 108.141427,170.87775 85.5,170.815135 L85.5,170.815135 Z" id="ring1" opacity="0.08"></path>
                <ellipse id="ring2" opacity="0.12" cx="85.5" cy="85.5" rx="71.1018711" ry="71.1018711"></ellipse>
                <path d="M85.5,142.374387 C54.1369647,142.374387 28.6185031,116.855925 28.6185031,85.4928898 C28.6185031,54.1298545 54.1369647,28.6113929 85.5,28.6113929 C116.863035,28.6113929 142.381497,54.1298545 142.381497,85.4928898 C142.381497,116.855925 116.863035,142.374387 85.5,142.374387 L85.5,142.374387 Z" id="ring3" opacity="0.18"></path>
                <path d="M85.5,128.154012 C61.9389125,128.154012 42.8388773,109.053977 42.8388773,85.4928898 C42.8388773,61.9318024 61.9389125,42.8317672 85.5,42.8317672 C109.061087,42.8317672 128.161123,61.9318024 128.161123,85.4928898 C128.133696,109.042607 109.049718,128.126586 85.5,128.154012 L85.5,128.154012 Z" id="moon"></path>
            </g>
        </g>
    </g>
</svg>