<?xml version="1.0" encoding="UTF-8"?>
<svg width="1200px" height="462px" viewBox="0 0 1200 462" version="1.1" xmlns="http://www.w3.org/2000/svg" xmlns:xlink="http://www.w3.org/1999/xlink">
    <!-- Generator: Sketch 3.8.1 (29687) - http://www.bohemiancoding.com/sketch -->
    <title>sails</title>
    <desc>Created with Sketch.</desc>
    <defs>
        <path d="M140.560175,43.3270421 C141.276781,38.2102955 139.550174,32.9740257 135.71927,29.1578287 C130.978659,24.4354172 123.843919,22.7126367 117.333084,24.7182323 C110.822248,26.723828 106.072813,32.1074056 105.093815,38.5916834 C105.006057,38.6883586 104.920184,38.7864324 104.836224,38.8858517 C100.935415,37.0394522 95.5052284,35.894314 89.5,35.894314 C79.5561989,35.894314 71.1890841,39.0341266 68.7314678,43.2984904 C63.340195,38.9190928 55.5023808,38.4838648 49.5944333,42.353379 C43.9279751,39.4153476 36.9267652,40.3392634 32.3005816,44.635565 C31.7632923,44.5448671 31.2189023,44.4791111 30.6674115,44.4382971 C26.1954876,38.2131159 17.8073805,35.802888 10.4972239,38.6426213 C3.18706721,41.4823545 -1.07968463,48.8085406 0.237318455,56.2592951 C1.55432154,63.7100497 8.10098186,69.2821163 15.9795313,69.6579832 C13.2130586,71.1249684 11.1579586,72.9347988 10.2291379,75.351203 C9.44785822,76.6846793 9,78.2371952 9,79.894314 C9,84.8648767 13.0294373,88.894314 18,88.894314 C19.7660185,88.894314 21.4132341,88.3856585 22.8031339,87.5068603 C24.021168,87.3018843 24.8161236,87.0159888 26.053688,86.6604387 C26.3306169,86.6774446 28.1095278,85.9475176 28.390007,85.9475176 C29.5913715,85.3645937 30.7162012,85.0699366 32.0307535,84.6027304 C33.8498253,91.6193456 40.6571641,96.3778851 48.1873511,95.8966899 C55.717538,95.4154947 61.8048125,89.8329616 62.6349418,82.6470569 C64.1394955,81.8870832 65.406371,80.7579547 66.3060243,79.37513 C68.3279682,82.9868767 72.2600445,85.2401826 76.5381902,85.2387495 C78.014394,85.993108 79.2953303,86.2324972 80.4657593,85.8732303 C81.6361884,85.5139634 82.5333638,84.605996 82.8436471,83.4667392 C84.723742,82.2997167 86.2128071,80.6382342 87.1324939,78.681291 C85.9988659,81.4775705 87.296097,84.6391532 90.1139051,85.9475194 C92.9317131,87.2558857 96.3260053,86.272674 97.9149672,83.6878153 C98.634702,90.8555407 104.700563,96.4510442 112.204557,96.8693639 C119.70855,97.2876836 126.410965,92.403964 127.993701,85.3645928 C133.98486,86.6952704 140.18291,84.137201 143.288694,79.0520187 C144.848098,85.3795206 149.951853,90.3508995 156.53004,91.9499257 C163.108227,93.5489518 170.068792,91.5101682 174.588755,86.6604392 C180.432734,89.1373185 187.287834,87.4252251 191.125594,82.5302864 C194.963354,77.6353477 194.769407,70.8513533 190.657729,66.1649801 C196.910309,63.7196567 200.997622,57.8940493 200.999957,51.4243032 C201.02005,42.9293028 194.07587,35.9149151 185.219593,35.4843974 C179.026468,35.1833396 173.423367,38.1759931 170.313464,42.8937447 C166.341764,41.1787338 161.342978,40.1567332 155.912326,40.1567332 C150.038733,40.1567332 144.670327,41.3522478 140.560175,43.3270421 Z" id="path-1"></path>
        <filter x="-50%" y="-50%" width="200%" height="200%" filterUnits="objectBoundingBox" id="filter-2">
            <feMorphology radius="1.5" operator="dilate" in="SourceAlpha" result="shadowSpreadOuter1"></feMorphology>
            <feOffset dx="0" dy="0" in="shadowSpreadOuter1" result="shadowOffsetOuter1"></feOffset>
            <feGaussianBlur stdDeviation="2" in="shadowOffsetOuter1" result="shadowBlurOuter1"></feGaussianBlur>
            <feColorMatrix values="0 0 0 0 0.492293793   0 0 0 0 0.492293793   0 0 0 0 0.492293793  0 0 0 0.5 0" type="matrix" in="shadowBlurOuter1"></feColorMatrix>
        </filter>
    </defs>
    <g id="Page-1" stroke="none" stroke-width="1" fill="none" fill-rule="evenodd">
        <g id="Desktop-HD-Copy">
            <g id="windmill" transform="translate(498.000000, 226.000000)">
                <g id="house" transform="translate(0.898917, 44.110012)">
                    <g id="hill" transform="translate(0.101083, 60.995674)">
                        <path d="M14,61 L135.62219,61 L180,61 L139.479449,21.3348398 C127.44244,9.55193315 104.032163,1.62359015e-12 87.1815024,1.62359015e-12 L113.19997,1.62359015e-12 C96.35362,1.62359015e-12 72.4865059,9.06644856 59.8934374,20.2485624 L14,61 Z" id="Shape" fill="#9E005D"></path>
                        <ellipse id="Combined-Shape" fill="#FFFFFF" cx="76" cy="79.894314" rx="11" ry="7"></ellipse>
                        <g id="Combined-Shape">
                            <use fill="black" fill-opacity="1" filter="url(#filter-2)" xlink:href="#path-1"></use>
                            <use fill="#FFFFFF" fill-rule="evenodd" xlink:href="#path-1"></use>
                        </g>
                    </g>
                    <g id="walls" transform="translate(65.000000, 0.000000)">
                        <path d="M57.1841155,20.5364648 C55.9927798,9.18355995 46.5703971,0.325401731 35.0902527,0.325401731 C23.6101083,0.325401731 14.1516245,9.18355995 12.9963899,20.5726205 L27.3285199,18.3309642 L41.0108303,18.3309642 L57.1841155,20.5364648 L57.1841155,20.5364648 L57.1841155,20.5364648 Z" id="Shape" fill="#C1527F"></path>
                        <path d="M53.8267148,19.6325711 L39.4584838,17.6801607 L27.3285199,17.6801607 L14.6209386,19.6325711 L0.288808664,76.3970952 C0.288808664,79.3980222 4.69314079,81.8566131 10.1444043,81.8566131 L58.3032491,81.8566131 C63.7545126,81.8566131 68.1588448,79.3980222 68.1588448,76.3970952 L53.8267148,19.6325711 L53.8267148,19.6325711 L53.8267148,19.6325711 Z" id="Shape" fill="#D1427C"></path>
                        <polygon id="Shape" fill="#841849" opacity="0.4" points="28.0866426 18.0778739 40.5776173 18.0778739 59.0613718 81.8204574 10.9025271 81.8204574"></polygon>
                    </g>
                    <g id="windows" transform="translate(95.324910, 33.986403)" fill="#EAB7B9">
                        <path d="M8.05054152,9.76205192 C8.05054152,10.7382571 7.29241877,11.4975278 6.31768953,11.4975278 L1.80505415,11.4975278 C0.83032491,11.4975278 0.0722021661,10.7382571 0.0722021661,9.76205192 L0.0722021661,2.06087763 C0.0722021661,1.12082818 0.83032491,0.325401731 1.80505415,0.325401731 L6.31768953,0.325401731 C7.25631769,0.325401731 8.05054152,1.08467244 8.05054152,2.06087763 L8.05054152,9.76205192 L8.05054152,9.76205192 L8.05054152,9.76205192 Z" id="Shape"></path>
                        <path d="M8.05054152,32.9378863 C8.05054152,33.9140915 7.29241877,34.6733622 6.31768953,34.6733622 L1.80505415,34.6733622 C0.83032491,34.6733622 0.0722021661,33.9140915 0.0722021661,32.9378863 L0.0722021661,25.236712 C0.0722021661,24.2966625 0.83032491,23.5012361 1.80505415,23.5012361 L6.31768953,23.5012361 C7.25631769,23.5012361 8.05054152,24.2605068 8.05054152,25.236712 L8.05054152,32.9378863 L8.05054152,32.9378863 L8.05054152,32.9378863 Z" id="Shape"></path>
                    </g>
                </g>
            </g>
        </g>
    </g>
</svg>