<?xml version="1.0" standalone="no"?>
<!DOCTYPE svg PUBLIC "-//W3C//DTD SVG 20010904//EN"
 "http://www.w3.org/TR/2001/REC-SVG-20010904/DTD/svg10.dtd">
<svg version="1.0" xmlns="http://www.w3.org/2000/svg"
 width="420.000000pt" height="420.000000pt" viewBox="0 0 420.000000 420.000000"
 preserveAspectRatio="xMidYMid meet">
<metadata>
Created by potrace 1.11, written by Peter Selinger 2001-2013
</metadata>
<g transform="translate(0.000000,420.000000) scale(0.100000,-0.100000)"
fill="#000000" stroke="none">
<path d="M150 4181 c-54 -22 -122 -95 -138 -148 -9 -31 -12 -495 -12 -1931 0
-1722 1 -1894 16 -1940 19 -58 59 -103 118 -135 l41 -22 1925 0 c1856 0 1926
1 1962 19 47 23 91 68 115 115 17 34 18 131 21 1946 2 1755 1 1914 -14 1955
-22 59 -67 107 -129 136 l-50 24 -1905 -1 c-1815 0 -1907 -1 -1950 -18z m3750
-2081 l0 -1800 -1800 0 -1800 0 0 1800 0 1800 1800 0 1800 0 0 -1800z"/>
<path d="M2549 3076 c-2 -3 -22 -7 -44 -10 -190 -25 -378 -134 -474 -275 -69
-100 -99 -248 -77 -376 9 -57 58 -154 97 -196 93 -99 251 -172 489 -225 344
-76 430 -123 430 -231 0 -103 -65 -170 -195 -202 -47 -12 -219 -16 -275 -7
-65 10 -99 18 -149 33 -46 14 -85 33 -232 110 -15 7 -44 16 -65 19 -76 10
-144 -65 -144 -159 0 -26 7 -61 15 -77 46 -89 279 -198 480 -225 28 -4 64 -9
80 -11 72 -9 267 -3 347 11 169 29 291 90 395 195 138 139 175 369 87 542 -72
142 -239 232 -590 318 -322 80 -386 120 -386 241 1 67 33 123 89 159 75 48
107 55 253 55 161 0 212 -14 363 -101 119 -68 171 -78 222 -43 76 53 91 181
28 251 -46 53 -241 156 -325 172 -13 2 -43 9 -68 16 -45 11 -342 25 -351 16z"/>
<path d="M1345 3056 c-48 -18 -100 -72 -113 -118 -5 -18 -9 -295 -9 -619 0
-602 -2 -627 -40 -686 -23 -36 -94 -63 -175 -69 -131 -9 -172 -28 -197 -91
-16 -40 -9 -121 14 -157 25 -38 95 -67 167 -70 74 -2 237 16 293 33 172 53
281 171 320 346 15 69 17 138 18 700 0 576 0 591 -20 637 -40 88 -157 131
-258 94z"/>
</g>
</svg>
